<?xml version="1.0" encoding="UTF-8"?>
<svg version="1.1" xmlns="http://www.w3.org/2000/svg" width="96" height="124">
<path d="M0 0 C31.68 0 63.36 0 96 0 C96 40.92 96 81.84 96 124 C64.32 124 32.64 124 0 124 C0 83.08 0 42.16 0 0 Z " fill="#009ADD" transform="translate(0,0)"/>
<path d="M0 0 C0 27.06 0 54.12 0 82 C-31.35 82 -62.7 82 -95 82 C-95 54 -95 54 -89.5 48.0390625 C-86.9846689 46.75524188 -84.59999527 45.67338907 -82 44.625 C-80.66709783 43.98598003 -79.33978261 43.3351865 -78.01806641 42.67333984 C-75.33253257 41.34186078 -72.63042986 40.06739203 -69.89941406 38.83203125 C-64.14653174 36.18895807 -58.78756619 32.89526848 -53.375 29.625 C-51.42533531 28.48328562 -49.47355701 27.34517179 -47.51953125 26.2109375 C-46.59350098 25.67178711 -45.6674707 25.13263672 -44.71337891 24.57714844 C-40.50019126 22.12823786 -36.28154677 19.68879793 -32.0625 17.25 C-25.86317572 13.66587166 -19.67465641 10.06397984 -13.5 6.4375 C-12.43084351 5.81053223 -12.43084351 5.81053223 -11.34008789 5.17089844 C-2.55321413 0 -2.55321413 0 0 0 Z " fill="#032F6C" transform="translate(95,42)"/>
<path d="M0 0 C0.33 0 0.66 0 1 0 C1 40.92 1 81.84 1 124 C0.67 124 0.34 124 0 124 C0 96.94 0 69.88 0 42 C-8.78731931 46.78305873 -8.78731931 46.78305873 -17.5 51.6875 C-18.07129639 52.01508301 -18.64259277 52.34266602 -19.23120117 52.68017578 C-21.15527358 53.78481611 -23.07785196 54.89201464 -25 56 C-25.72783691 56.41942871 -26.45567383 56.83885742 -27.20556641 57.27099609 C-36.23203203 62.47659444 -45.23947822 67.71316715 -54.21386719 73.00805664 C-58.50733409 75.53945049 -62.80913466 78.05599653 -67.1171875 80.5625 C-68.18300049 81.18278076 -69.24881348 81.80306152 -70.34692383 82.44213867 C-72.43988533 83.65952369 -74.53344206 84.87588613 -76.62768555 86.09106445 C-80.99613722 88.63258369 -85.33389898 91.1915191 -89.58984375 93.91796875 C-93 96 -93 96 -95 96 C-96.16770809 87.78822285 -97.32551408 79.08099389 -95 71 C-90.88404808 65.70325206 -84.43736158 63.37427088 -78.35839844 60.96435547 C-75.3443271 59.73189359 -72.64232384 58.14672943 -69.875 56.4375 C-68.48474609 55.62539062 -68.48474609 55.62539062 -67.06640625 54.796875 C-58.96999172 50.05247923 -50.88359874 45.29095552 -42.80078125 40.5234375 C-34.42379321 35.5854235 -26.02716934 30.68407926 -17.59423828 25.84204102 C-13.21692826 23.31965996 -8.93556358 20.71068788 -4.72875977 17.91137695 C-3 17 -3 17 0 17 C0 11.39 0 5.78 0 0 Z " fill="#F5FAFB" transform="translate(95,0)"/>
<path d="M0 0 C0.495 1.485 0.495 1.485 1 3 C2.65 3 4.3 3 6 3 C3.46745586 5.86099696 0.64042118 7.46638382 -2.6875 9.3125 C-3.9369203 10.01303609 -5.18555457 10.71497508 -6.43359375 11.41796875 C-7.14241699 11.81677246 -7.85124023 12.21557617 -8.58154297 12.62646484 C-13.49534875 15.41720493 -18.37003993 18.27563741 -23.25 21.125 C-24.25506592 21.71063721 -25.26013184 22.29627441 -26.2956543 22.8996582 C-31.91512893 26.1789554 -37.49885784 29.50302389 -43.03027344 32.92919922 C-45 34 -45 34 -47 34 C-47 33.34 -47 32.68 -47 32 C-45.34467377 30.98133771 -43.67739862 29.98189187 -42 29 C-41.67 28.34 -41.34 27.68 -41 27 C-39.865625 26.608125 -38.73125 26.21625 -37.5625 25.8125 C-32.90774203 24.18583727 -29.3476834 21.5295204 -25.390625 18.640625 C-22.36120782 16.56161321 -19.41334076 15.338565 -16 14 C-14.6078125 13.1646875 -14.6078125 13.1646875 -13.1875 12.3125 C-11 11 -11 11 -9 11 C-9 10.34 -9 9.68 -9 9 C-7.68 9 -6.36 9 -5 9 C-4.731875 8.2575 -4.46375 7.515 -4.1875 6.75 C-3.05770579 4.13363446 -1.79106798 2.19812889 0 0 Z " fill="#2197CC" transform="translate(69,24)"/>
<path d="M0 0 C-2.72571327 1.63084542 -5.45615252 3.25361139 -8.1875 4.875 C-8.95642578 5.33519531 -9.72535156 5.79539062 -10.51757812 6.26953125 C-14.26306993 8.4878912 -17.87015924 10.55993529 -22 12 C-22 11.01 -22 10.02 -22 9 C-21.360625 8.87625 -20.72125 8.7525 -20.0625 8.625 C-19.381875 8.41875 -18.70125 8.2125 -18 8 C-17.67 7.34 -17.34 6.68 -17 6 C-13.9375 5.375 -13.9375 5.375 -11 5 C-10.67 4.01 -10.34 3.02 -10 2 C-3.73913043 -1.24637681 -3.73913043 -1.24637681 0 0 Z " fill="#2697CA" transform="translate(22,59)"/>
<path d="M0 0 C0.66 0.33 1.32 0.66 2 1 C0.35 3.64 -1.3 6.28 -3 9 C-5.97 8.67 -8.94 8.34 -12 8 C-9.43564561 5.43564561 -7.53445956 3.98470552 -4.4375 2.25 C-3.65246094 1.80140625 -2.86742188 1.3528125 -2.05859375 0.890625 C-1.37925781 0.59671875 -0.69992188 0.3028125 0 0 Z " fill="#214173" transform="translate(89,44)"/>
<path d="M0 0 C0.66 0 1.32 0 2 0 C2 5.61 2 11.22 2 17 C0.02 17.66 -1.96 18.32 -4 19 C-4 18.34 -4 17.68 -4 17 C-3.34 17 -2.68 17 -2 17 C-2 16.34 -2 15.68 -2 15 C-1.34 15 -0.68 15 0 15 C0 10.05 0 5.1 0 0 Z " fill="#3EA8D7" transform="translate(93,0)"/>
<path d="M0 0 C0 0.66 0 1.32 0 2 C-4.08606268 5.18712889 -8.16259742 8.06503897 -13 10 C-15.17578125 9.5703125 -15.17578125 9.5703125 -17 9 C-14.54481265 7.49462965 -12.0861548 5.99555574 -9.625 4.5 C-8.92632812 4.07074219 -8.22765625 3.64148438 -7.5078125 3.19921875 C-2.2265625 0 -2.2265625 0 0 0 Z " fill="#B8E9F7" transform="translate(84,23)"/>
<path d="M0 0 C0.33 0 0.66 0 1 0 C1.02888514 3.14581423 1.04675923 6.29159469 1.0625 9.4375 C1.07087891 10.33533203 1.07925781 11.23316406 1.08789062 12.15820312 C1.09111328 13.01220703 1.09433594 13.86621094 1.09765625 14.74609375 C1.10289307 15.53685303 1.10812988 16.3276123 1.11352539 17.14233398 C1 19 1 19 0 20 C-1.99958364 20.04080783 -4.00045254 20.04254356 -6 20 C-4.6875 18.5 -4.6875 18.5 -3 17 C-2.01 17 -1.02 17 0 17 C0 11.39 0 5.78 0 0 Z " fill="#BDF2FB" transform="translate(95,0)"/>
<path d="M0 0 C0 0.66 0 1.32 0 2 C-0.99 2.33 -1.98 2.66 -3 3 C-3.33 3.99 -3.66 4.98 -4 6 C-6.6352539 7.42446157 -8.19404974 8.16845087 -11.16796875 7.546875 C-12.07482422 7.27617188 -12.07482422 7.27617188 -13 7 C-11.21190303 5.82786955 -9.41940875 4.66244474 -7.625 3.5 C-6.62726562 2.8503125 -5.62953125 2.200625 -4.6015625 1.53125 C-2 0 -2 0 0 0 Z " fill="#354E78" transform="translate(58,63)"/>
<path d="M0 0 C0.33 0.99 0.66 1.98 1 3 C2.65 3 4.3 3 6 3 C3.93243723 5.7972908 2.85559629 6.02692273 -0.6875 6.6875 C-1.780625 6.790625 -2.87375 6.89375 -4 7 C-2.79618552 4.50638429 -1.54571278 2.31856917 0 0 Z " fill="#1098D3" transform="translate(69,24)"/>
<path d="M0 0 C-1.36983503 3.16115776 -1.9890638 3.9927092 -5 6 C-7.6875 6.125 -7.6875 6.125 -10 6 C-2.6 0 -2.6 0 0 0 Z " fill="#C2F0FB" transform="translate(24,58)"/>
<path d="M0 0 C0 0.99 0 1.98 0 3 C-2 4.6875 -2 4.6875 -4 6 C-4.66 5.67 -5.32 5.34 -6 5 C-6 4.01 -6 3.02 -6 2 C-2.25 0 -2.25 0 0 0 Z " fill="#C5EFF9" transform="translate(67,33)"/>
<path d="M0 0 C0.66 0.33 1.32 0.66 2 1 C0.875 3 0.875 3 -1 5 C-4.1875 5.25 -4.1875 5.25 -7 5 C-2.25 1.125 -2.25 1.125 0 0 Z " fill="#2E4979" transform="translate(89,44)"/>
</svg>
