<?xml version="1.0" encoding="UTF-8"?>
<svg version="1.1" xmlns="http://www.w3.org/2000/svg" width="447" height="447">
<path d="M0 0 C147.51 0 295.02 0 447 0 C447 147.51 447 295.02 447 447 C299.49 447 151.98 447 0 447 C0 299.49 0 151.98 0 0 Z " fill="#FEFEFE" transform="translate(0,0)"/>
<path d="M0 0 C0 22.11 0 44.22 0 67 C-25.41 67 -50.82 67 -77 67 C-77 59.74 -77 52.48 -77 45 C-66.96837945 38.31225296 -66.96837945 38.31225296 -61.8125 35.4375 C-55.7020444 31.99621413 -49.6569856 28.45188413 -43.625 24.875 C-35.45418606 20.03367128 -27.26675739 15.22195175 -19.0625 10.4375 C-18.06234863 9.85403809 -17.06219727 9.27057617 -16.03173828 8.66943359 C-13.35605439 7.1102483 -10.67840604 5.55450301 -8 4 C-7.27151855 3.57477051 -6.54303711 3.14954102 -5.79248047 2.71142578 C-1.1149441 0 -1.1149441 0 0 0 Z " fill="#023674" transform="translate(107,206)"/>
<path d="M0 0 C25.74 0 51.48 0 78 0 C78 4.62 78 9.24 78 14 C76.14375 15.05574219 76.14375 15.05574219 74.25 16.1328125 C58.41835969 25.15048261 42.64914879 34.27469209 26.9765625 43.56640625 C26.00323975 44.14334229 25.02991699 44.72027832 24.02709961 45.31469727 C22.20643817 46.39526007 20.38684079 47.47761893 18.56860352 48.56225586 C12.44681127 52.19864188 6.26226142 55.58422104 0 59 C0 39.53 0 20.06 0 0 Z " fill="#02A9E5" transform="translate(30,171)"/>
<path d="M0 0 C8.91 0 17.82 0 27 0 C27 2.97 27 5.94 27 9 C21.39 9 15.78 9 10 9 C10 11.31 10 13.62 10 16 C14.95 16 19.9 16 25 16 C25 18.97 25 21.94 25 25 C20.05 25 15.1 25 10 25 C10 27.64 10 30.28 10 33 C15.61 33 21.22 33 27 33 C27 35.97 27 38.94 27 42 C18.09 42 9.18 42 0 42 C0 28.14 0 14.28 0 0 Z " fill="#144179" transform="translate(266,220)"/>
<path d="M0 0 C3 1 3 1 4.45458984 3.40161133 C4.95168457 4.4511499 5.4487793 5.50068848 5.9609375 6.58203125 C6.51523438 7.74283203 7.06953125 8.90363281 7.640625 10.09960938 C7.92615234 10.7108667 8.21167969 11.32212402 8.50585938 11.9519043 C9.35584272 13.77148942 10.22072878 15.58408939 11.0859375 17.39648438 C21 38.31469727 21 38.31469727 21 42 C17.7 42 14.4 42 11 42 C10.34 39.36 9.68 36.72 9 34 C4.05 34.33 -0.9 34.66 -6 35 C-6.99 37.31 -7.98 39.62 -9 42 C-12.3 42 -15.6 42 -19 42 C-17.93809544 38.33160242 -16.55073625 35.00998638 -14.8125 31.625 C-11.60874546 25.28245933 -8.65006076 18.83287849 -5.6875 12.375 C-5.13771484 11.18003906 -4.58792969 9.98507813 -4.02148438 8.75390625 C-2.67952637 5.83660623 -1.33906423 2.91862912 0 0 Z " fill="#0D3A75" transform="translate(200,220)"/>
<path d="M0 0 C1.29808594 -0.00515625 2.59617188 -0.0103125 3.93359375 -0.015625 C7.2980839 0.23064554 9.55514047 0.78977919 12.5625 2.25 C12.2325 5.22 11.9025 8.19 11.5625 11.25 C6.8125 10.375 6.8125 10.375 4.5625 9.25 C-0.64397133 8.84950221 -4.08379854 9.28156718 -8.4375 12.25 C-11.04094608 15.77724953 -11.67281253 18.52695969 -11.4375 22.8125 C-10.91686593 25.92578658 -10.27604113 27.52280982 -8.625 30.3125 C-2.55207447 34.00388611 4.84267732 32.75701906 11.5625 31.25 C12.2225 33.89 12.8825 36.53 13.5625 39.25 C6.65324009 43.10633111 -1.18739725 43.68184621 -8.84375 41.59375 C-14.39862681 39.11542035 -18.72053631 34.68392737 -21.4375 29.25 C-21.61528623 26.65024068 -21.71503022 24.10175193 -21.75 21.5 C-21.77900391 20.79617187 -21.80800781 20.09234375 -21.83789062 19.3671875 C-21.90967933 13.42529155 -20.06926605 9.96071903 -15.875 5.640625 C-10.28446802 1.20465941 -7.22870589 -0.02865691 0 0 Z " fill="#093874" transform="translate(165.4375,219.75)"/>
<path d="M0 0 C3.63 0 7.26 0 11 0 C12.31697037 2.74793818 13.62870369 5.49817185 14.9375 8.25 C15.31068359 9.02730469 15.68386719 9.80460938 16.06835938 10.60546875 C16.42607422 11.35957031 16.78378906 12.11367187 17.15234375 12.890625 C17.48226318 13.58188477 17.81218262 14.27314453 18.15209961 14.98535156 C18.98917528 16.97427999 19.53583974 18.89580682 20 21 C23.07002332 15.0864305 25.83197675 9.1627168 28.203125 2.93359375 C29 1 29 1 30 0 C31.68608966 -0.07205511 33.37500659 -0.08386068 35.0625 -0.0625 C35.98160156 -0.05347656 36.90070313 -0.04445312 37.84765625 -0.03515625 C38.55792969 -0.02355469 39.26820313 -0.01195312 40 0 C35.72480259 14.6959911 27.88620723 28.39241497 21 42 C18.52575872 39.7673214 17.17094294 37.65202059 15.765625 34.640625 C15.35948975 33.77872559 14.95335449 32.91682617 14.53491211 32.02880859 C14.11089111 31.11180176 13.68687012 30.19479492 13.25 29.25 C12.81115479 28.31365723 12.37230957 27.37731445 11.92016602 26.41259766 C11.03074326 24.51302044 10.14408722 22.61214524 9.26025391 20.70996094 C8.1226856 18.26381445 6.97608555 15.8222499 5.82421875 13.3828125 C1.16011612 3.48034835 1.16011612 3.48034835 0 0 Z " fill="#0B3974" transform="translate(221,220)"/>
<path d="M0 0 C4.18587144 1.7289469 6.17315321 3.86555726 8 8 C8.83876329 13.51187306 7.1248085 16.60837724 4 21 C0.12141936 23.47798207 -4.50891664 23.74548347 -9 23 C-12.43823122 20.9071636 -14.81169353 18.889003 -16 15 C-16.7557317 8.30637636 -16.7557317 8.30637636 -14.94921875 5.18359375 C-10.44678093 -0.32824016 -6.76792152 -0.6451225 0 0 Z " fill="#184278" transform="translate(285,181)"/>
<path d="M0 0 C2.93223674 1.83408533 4.53958687 3.87950788 6 7 C7.00993425 11.63149537 6.68086992 14.85711121 4.25 18.9375 C0.27061111 22.58527315 -2.48951798 23.47131235 -8.03515625 23.31640625 C-11.24330151 22.79978644 -12.84118317 21.34930067 -15 19 C-17.27415594 15.27865392 -17.20703828 12.11624399 -16.55078125 7.93359375 C-15.71149195 4.98715259 -14.13891829 3.13891829 -12 1 C-8.21543839 -0.89228081 -4.101694 -0.7463327 0 0 Z " fill="#F7F9F9" transform="translate(356,181)"/>
<path d="M0 0 C3.3 0 6.6 0 10 0 C10 13.86 10 27.72 10 42 C6.7 42 3.4 42 0 42 C0 28.14 0 14.28 0 0 Z " fill="#103F76" transform="translate(125,220)"/>
<path d="M0 0 C1.98 0 3.96 0 6 0 C6 2.97 6 5.94 6 9 C8.64 9 11.28 9 14 9 C14 6.03 14 3.06 14 0 C15.98 0 17.96 0 20 0 C20 7.59 20 15.18 20 23 C18.02 23 16.04 23 14 23 C14 20.03 14 17.06 14 14 C11.36 14 8.72 14 6 14 C6 16.97 6 19.94 6 23 C4.02 23 2.04 23 0 23 C0 15.41 0 7.82 0 0 Z " fill="#697E99" transform="translate(216,181)"/>
<path d="M0 0 C3.80110395 1.90055197 6.50294589 3.91912158 9.75 6.625 C11.22726562 7.85089844 11.22726562 7.85089844 12.734375 9.1015625 C13.85585938 10.04128906 13.85585938 10.04128906 15 11 C15 7.37 15 3.74 15 0 C16.65 0 18.3 0 20 0 C20 7.59 20 15.18 20 23 C15.00648156 20.00388894 11.3079446 16.86984854 7 13 C6.67 16.3 6.34 19.6 6 23 C4.02 23 2.04 23 0 23 C0 15.41 0 7.82 0 0 Z " fill="#1B4579" transform="translate(297,181)"/>
<path d="M0 0 C1.98 0 3.96 0 6 0 C6 2.97 6 5.94 6 9 C8.97 9 11.94 9 15 9 C15 6.03 15 3.06 15 0 C16.65 0 18.3 0 20 0 C20 7.59 20 15.18 20 23 C18.35 23 16.7 23 15 23 C15 19.7 15 16.4 15 13 C12.03 13 9.06 13 6 13 C6 16.3 6 19.6 6 23 C4.02 23 2.04 23 0 23 C0 15.41 0 7.82 0 0 Z " fill="#22497D" transform="translate(124,181)"/>
<path d="M0 0 C1.65 0 3.3 0 5 0 C5.06058594 1.14339844 5.12117187 2.28679687 5.18359375 3.46484375 C5.26798428 4.95574305 5.35263302 6.44662775 5.4375 7.9375 C5.47681641 8.69224609 5.51613281 9.44699219 5.55664062 10.22460938 C5.44038024 13.91944187 5.44038024 13.91944187 7 17 C9.5 17.16666667 9.5 17.16666667 12 17 C14.05922402 14.94077598 13.41427579 10.78291876 13.5625 7.9375 C13.60568359 7.17888672 13.64886719 6.42027344 13.69335938 5.63867188 C13.79973633 3.75934562 13.90039934 1.87969756 14 0 C15.65 0 17.3 0 19 0 C19.13539281 2.89740622 19.23426829 5.78845621 19.3125 8.6875 C19.35439453 9.50412109 19.39628906 10.32074219 19.43945312 11.16210938 C19.52786575 15.52969312 19.42621356 17.42055783 16.76171875 21.04296875 C13.99906898 23.00065975 12.82167689 23.68348023 9.5 23.625 C8.7678125 23.63789063 8.035625 23.65078125 7.28125 23.6640625 C3.65673072 22.60897983 2.22729247 21.02802938 0 18 C-0.58998672 14.86701736 -0.47531181 11.8610779 -0.3125 8.6875 C-0.28994141 7.85154297 -0.26738281 7.01558594 -0.24414062 6.15429688 C-0.1855061 4.10208851 -0.09583215 2.05080798 0 0 Z " fill="#103671" transform="translate(149,181)"/>
<path d="M0 0 C-0.33 1.65 -0.66 3.3 -1 5 C-1.69867188 4.97679687 -2.39734375 4.95359375 -3.1171875 4.9296875 C-4.48230469 4.90261719 -4.48230469 4.90261719 -5.875 4.875 C-6.77992188 4.85179687 -7.68484375 4.82859375 -8.6171875 4.8046875 C-11.18806994 4.75675164 -11.18806994 4.75675164 -13 7 C-13.33333333 10.5 -13.33333333 10.5 -13 14 C-11.18806994 16.24324836 -11.18806994 16.24324836 -8.6171875 16.1953125 C-7.25980469 16.16050781 -7.25980469 16.16050781 -5.875 16.125 C-4.96492187 16.10695312 -4.05484375 16.08890625 -3.1171875 16.0703125 C-2.06917969 16.03550781 -2.06917969 16.03550781 -1 16 C-0.67 17.32 -0.34 18.64 0 20 C-4.02181615 22.68121076 -7.27236391 22.81344335 -12 22 C-15.0717718 20.28922026 -17.40485654 18.19028693 -19 15 C-19.58742841 10.86569372 -19.90492216 6.82415139 -18.01171875 3.0078125 C-13.26243356 -2.58430359 -6.54311474 -2.18103825 0 0 Z " fill="#103B75" transform="translate(212,182)"/>
<path d="M0 0 C9 0 9 0 12.0625 1 C14 3 14 3 14.625 6.9375 C14.40904629 10.19480173 14.09006309 10.89404343 11.875 13.5 C8.62603831 15.19511045 6.61305558 15.33609819 3 15 C3 17.64 3 20.28 3 23 C2.01 23 1.02 23 0 23 C0 15.41 0 7.82 0 0 Z " fill="#19336F" transform="translate(322,181)"/>
<path d="M0 0 C9 0 9 0 12.125 1.5625 C14 4 14 4 14 7.625 C13 11 13 11 10 13 C11.20632452 16.43338516 12.38477184 18.50364585 15 21 C15 21.66 15 22.32 15 23 C13.25 22.9375 13.25 22.9375 11 22 C10.01953125 20.41015625 10.01953125 20.41015625 9.0625 18.5 C7.5189003 15.392707 7.5189003 15.392707 4.25 14.0625 C3.13625 14.0315625 3.13625 14.0315625 2 14 C2 16.97 2 19.94 2 23 C1.34 23 0.68 23 0 23 C0 15.41 0 7.82 0 0 Z " fill="#1A3970" transform="translate(367,181)"/>
<path d="M0 0 C1.19496094 0.02320313 1.19496094 0.02320313 2.4140625 0.046875 C4.375 0.25 4.375 0.25 5.375 1.25 C5.41563832 2.91617115 5.417721 4.58388095 5.375 6.25 C2.735 5.59 0.095 4.93 -2.625 4.25 C-2.295 5.57 -1.965 6.89 -1.625 8.25 C0.76568734 9.35636395 0.76568734 9.35636395 3.375 10.25 C5.1875 11.5 5.1875 11.5 6.375 13.25 C6.875 16.1875 6.875 16.1875 6.375 19.25 C4.2389874 21.78651497 2.65642052 23.05398921 -0.66796875 23.5625 C-2.8125 23.625 -2.8125 23.625 -6.625 23.25 C-7.285 22.59 -7.945 21.93 -8.625 21.25 C-8.295 19.93 -7.965 18.61 -7.625 17.25 C-4.655 17.58 -1.685 17.91 1.375 18.25 C-0.91343244 13.67313512 -1.25931665 13.95368131 -5.625 12.25 C-7.5 10.4375 -7.5 10.4375 -8.625 8.25 C-8.4875709 5.43270343 -8.08807693 3.84885566 -6.359375 1.61328125 C-4.11417165 -0.15152949 -2.82239766 -0.09193478 0 0 Z " fill="#103B75" transform="translate(259.625,180.75)"/>
<path d="M0 0 C6.27 0 12.54 0 19 0 C19 1.65 19 3.3 19 5 C16.69 5 14.38 5 12 5 C12 10.94 12 16.88 12 23 C10.35 23 8.7 23 7 23 C7 17.06 7 11.12 7 5 C4.69 5 2.38 5 0 5 C0 3.35 0 1.7 0 0 Z " fill="#0B3B75" transform="translate(172,181)"/>
<path d="M0 0 C2.93223674 1.83408533 4.53958687 3.87950788 6 7 C7.00993425 11.63149537 6.68086992 14.85711121 4.25 18.9375 C0.27061111 22.58527315 -2.48951798 23.47131235 -8.03515625 23.31640625 C-11.24330151 22.79978644 -12.84118317 21.34930067 -15 19 C-17.27415594 15.27865392 -17.20703828 12.11624399 -16.55078125 7.93359375 C-15.71149195 4.98715259 -14.13891829 3.13891829 -12 1 C-8.21543839 -0.89228081 -4.101694 -0.7463327 0 0 Z M-11.9375 4 C-14.09159963 7.13323582 -14.74851975 9.1781781 -14.48046875 12.99609375 C-13.56255124 16.82448141 -12.01704172 18.43230492 -9 21 C-5.45704496 21.83345815 -5.45704496 21.83345815 -2 21 C0.36497439 19.13291495 1.66030715 17.67938569 3 15 C3.60706074 9.10388111 3.60706074 9.10388111 0.9375 4 C-3.82690226 0.75615165 -7.17309774 0.75615165 -11.9375 4 Z " fill="#1A3971" transform="translate(356,181)"/>
<path d="M0 0 C1.65 0 3.3 0 5 0 C5 7.59 5 15.18 5 23 C3.35 23 1.7 23 0 23 C0 19.7 0 16.4 0 13 C-2.97 13 -5.94 13 -9 13 C-9 12.01 -9 11.02 -9 10 C-6.03 10 -3.06 10 0 10 C0 6.7 0 3.4 0 0 Z " fill="#0F3873" transform="translate(139,181)"/>
<path d="M0 0 C1.875 -0.36328125 1.875 -0.36328125 4 -0.3125 C4.70125 -0.30863281 5.4025 -0.30476562 6.125 -0.30078125 C8 0 8 0 10 2 C10.55239643 8.96019496 10.55239643 8.96019496 8.9375 12 C5.87672462 13.57975504 3.36875585 13.36750064 0 13 C-2.45811625 9.31282562 -2.31118164 7.35654296 -2 3 C-1.34 2.01 -0.68 1.02 0 0 Z " fill="#F2F5F6" transform="translate(277,186)"/>
<path d="M0 0 C1.98 0 3.96 0 6 0 C6 7.59 6 15.18 6 23 C4.02 23 2.04 23 0 23 C0 15.41 0 7.82 0 0 Z " fill="#264C7E" transform="translate(241,181)"/>
<path d="M0 0 C1.65 0 3.3 0 5 0 C5 3.3 5 6.6 5 10 C7.64 10 10.28 10 13 10 C13.33 10.99 13.66 11.98 14 13 C10.7 13 7.4 13 4 13 C4 15.97 4 18.94 4 22 C2.68 22 1.36 22 0 22 C0 14.74 0 7.48 0 0 Z " fill="#083774" transform="translate(217,181)"/>
<path d="M0 0 C5.94 0 11.88 0 18 0 C18 0.66 18 1.32 18 2 C15.69 2 13.38 2 11 2 C11 8.93 11 15.86 11 23 C10.01 23 9.02 23 8 23 C8 16.07 8 9.14 8 2 C5.36 2 2.72 2 0 2 C0 1.34 0 0.68 0 0 Z " fill="#324D7F" transform="translate(383,181)"/>
<path d="M0 0 C1.9453125 -0.29296875 1.9453125 -0.29296875 4.125 -0.1875 C5.40375 -0.125625 6.6825 -0.06375 8 0 C8.33 0.99 8.66 1.98 9 3 C6.69 3 4.38 3 2 3 C1.67 4.32 1.34 5.64 1 7 C3.97 9.31 6.94 11.62 10 14 C9.6875 17.375 9.6875 17.375 9 21 C5.33134759 23.44576827 3.32799657 23.23607254 -1 23 C-1.66 22.67 -2.32 22.34 -3 22 C-3 21.01 -3 20.02 -3 19 C-0.03 19.33 2.94 19.66 6 20 C6.33 18.35 6.66 16.7 7 15 C6.3503125 14.63648438 5.700625 14.27296875 5.03125 13.8984375 C2.52452423 12.38975995 0.22346971 10.90398086 -2 9 C-2.6875 5.8125 -2.6875 5.8125 -2 3 C-1.34 2.01 -0.68 1.02 0 0 Z " fill="#0F2F6C" transform="translate(406,181)"/>
<path d="M0 0 C3.56311466 1.78155733 5.35645475 3.16763009 8 6 C7.34 7.32 6.68 8.64 6 10 C5.34 10 4.68 10 4 10 C4 13.63 4 17.26 4 21 C2.68 21 1.36 21 0 21 C0 14.07 0 7.14 0 0 Z " fill="#023172" transform="translate(298,182)"/>
<path d="M0 0 C1.65 0 3.3 0 5 0 C5.05379226 2.95857409 5.09357093 5.91617721 5.125 8.875 C5.14175781 9.71675781 5.15851563 10.55851563 5.17578125 11.42578125 C5.18222656 12.23144531 5.18867188 13.03710938 5.1953125 13.8671875 C5.20578613 14.61081543 5.21625977 15.35444336 5.22705078 16.12060547 C5 18 5 18 3 20 C0.32266002 17.32968716 -0.00280229 15.96278559 -0.29296875 12.109375 C-0.27314945 10.65595991 -0.23754845 9.20268833 -0.1875 7.75 C-0.17396484 7.00492188 -0.16042969 6.25984375 -0.14648438 5.4921875 C-0.11127204 3.66114584 -0.05746851 1.83047831 0 0 Z " fill="#033571" transform="translate(163,181)"/>
<path d="M0 0 C5.3820598 -0.35880399 5.3820598 -0.35880399 7.9375 1.125 C9 3 9 3 8.8125 6.0625 C8 9 8 9 6 11 C2.875 11.125 2.875 11.125 0 11 C0 7.37 0 3.74 0 0 Z " fill="#EEF1F3" transform="translate(325,183)"/>
<path d="M0 0 C5.625 -0.25 5.625 -0.25 9 2 C9.375 5 9.375 5 9 8 C5.5647952 10.29013653 4.014669 10.17842973 0 10 C0 6.7 0 3.4 0 0 Z " fill="#ECF0F2" transform="translate(369,183)"/>
<path d="M0 0 C1.32 0 2.64 0 4 0 C4 7.26 4 14.52 4 22 C2.68 22 1.36 22 0 22 C-0.16682272 17.07872966 -0.24828052 13.49656104 2 9 C1.34 9 0.68 9 0 9 C0 6.03 0 3.06 0 0 Z " fill="#002D6E" transform="translate(231,181)"/>
<path d="M0 0 C3.29414961 0.56795683 4.88973616 1.40006168 7 4 C7.58203125 6.19140625 7.58203125 6.19140625 7.8125 8.5625 C7.90144531 9.34753906 7.99039062 10.13257813 8.08203125 10.94140625 C8 13 8 13 6 15 C5.67 12.69 5.34 10.38 5 8 C4.01 9.32 3.02 10.64 2 12 C1.34 9.69 0.68 7.38 0 5 C-2.31 4.67 -4.62 4.34 -7 4 C-7 3.67 -7 3.34 -7 3 C-5.02 3 -3.04 3 -1 3 C-0.67 2.01 -0.34 1.02 0 0 Z " fill="#24487C" transform="translate(285,182)"/>
<path d="M0 0 C0.33 0 0.66 0 1 0 C1.62376238 7.9529703 1.62376238 7.9529703 -0.75 11.9375 C-4.21477747 15.11354602 -6.38834822 16.10473386 -11.0625 16.25 C-15 16 -15 16 -18 14 C-17.67 12.68 -17.34 11.36 -17 10 C-16.649375 10.495 -16.29875 10.99 -15.9375 11.5 C-12.97447821 13.79395236 -10.62957303 13.38888282 -7 13 C-3.31807172 10.84162825 -3.04610872 6.90547254 -2 3 C-1.34 2.01 -0.68 1.02 0 0 Z " fill="#2E497C" transform="translate(361,188)"/>
<path d="M0 0 C-0.33 1.32 -0.66 2.64 -1 4 C-2.6396875 4.37125 -2.6396875 4.37125 -4.3125 4.75 C-8.05908409 6.02002851 -9.10595266 6.65756352 -11 10 C-11 8.68 -11 7.36 -11 6 C-11.99 6.33 -12.98 6.66 -14 7 C-13.65557106 4.50289018 -13.15296001 3.17845335 -11.5 1.25 C-7.74442761 -0.62778619 -4.12353394 -0.23789619 0 0 Z " fill="#093471" transform="translate(285,181)"/>
<path d="M0 0 C10.42307692 0 10.42307692 0 14 3 C14 3.66 14 4.32 14 5 C10.30099992 4.11223998 6.65449539 3.05418136 3 2 C3 5.63 3 9.26 3 13 C2.67 13 2.34 13 2 13 C1.67 16.3 1.34 19.6 1 23 C0.67 23 0.34 23 0 23 C0 15.41 0 7.82 0 0 Z " fill="#425F88" transform="translate(322,181)"/>
<path d="M0 0 C0.66 0.33 1.32 0.66 2 1 C2.63019694 9.19256018 2.63019694 9.19256018 0 12.5625 C-0.66 13.036875 -1.32 13.51125 -2 14 C-2.99 13.67 -3.98 13.34 -5 13 C-4.39254603 8.14036821 -2.27241033 4.2594482 0 0 Z " fill="#0A3873" transform="translate(289,189)"/>
<path d="M0 0 C2.95183101 2.95183101 3.08663988 5.95511947 4 10 C1.36 10 -1.28 10 -4 10 C-3.52449439 8.51965236 -3.04448784 7.04074979 -2.5625 5.5625 C-2.29566406 4.73878906 -2.02882812 3.91507813 -1.75390625 3.06640625 C-1 1 -1 1 0 0 Z " fill="#E1E7EB" transform="translate(201,237)"/>
<path d="M0 0 C1.9453125 -0.29296875 1.9453125 -0.29296875 4.125 -0.1875 C5.40375 -0.125625 6.6825 -0.06375 8 0 C8.33 0.99 8.66 1.98 9 3 C6.69 3 4.38 3 2 3 C1.30840599 4.84725052 1.30840599 4.84725052 1 7 C1.99 8.485 1.99 8.485 3 10 C2.01 10.33 1.02 10.66 0 11 C-2 9 -2 9 -2.25 6.0625 C-2 3 -2 3 0 0 Z " fill="#254178" transform="translate(406,181)"/>
<path d="M0 0 C0.6875 2.0625 0.6875 2.0625 1 4 C-1.25 5.125 -1.25 5.125 -4 6 C-6.3125 5.125 -6.3125 5.125 -8 4 C-8 3.01 -8 2.02 -8 1 C-3.375 -1.125 -3.375 -1.125 0 0 Z " fill="#18437A" transform="translate(165,198)"/>
<path d="M0 0 C2.64 0.66 5.28 1.32 8 2 C8 3.32 8 4.64 8 6 C4.625 6.125 4.625 6.125 1 6 C0.34 5.34 -0.32 4.68 -1 4 C-0.67 2.68 -0.34 1.36 0 0 Z " fill="#09306F" transform="translate(252,198)"/>
<path d="M0 0 C2.91517292 1.07401108 4.77810176 1.77810176 7 4 C6.75 7.5625 6.75 7.5625 6 11 C5.01 11.495 5.01 11.495 4 12 C3.34 11.34 2.68 10.68 2 10 C2.66 10 3.32 10 4 10 C3.73343428 7.06556598 3.73343428 7.06556598 3 4 C2.01 3.34 1.02 2.68 0 2 C0 1.34 0 0.68 0 0 Z " fill="#2A4479" transform="translate(374,181)"/>
<path d="M0 0 C0.33 0 0.66 0 1 0 C1 2.97 1 5.94 1 9 C1.66 9 2.32 9 3 9 C2.67 10.65 2.34 12.3 2 14 C0 13 0 13 -1 11 C-3.32156597 10.59270772 -5.6568787 10.25561323 -8 10 C-8 9.67 -8 9.34 -8 9 C-5.36 9 -2.72 9 0 9 C0 6.03 0 3.06 0 0 Z " fill="#375B88" transform="translate(230,181)"/>
<path d="M0 0 C0.92232422 0.10828125 0.92232422 0.10828125 1.86328125 0.21875 C3.07564453 0.35796875 3.07564453 0.35796875 4.3125 0.5 C5.51326172 0.63921875 5.51326172 0.63921875 6.73828125 0.78125 C9.11896555 1.04813463 9.11896555 1.04813463 12 1 C10.9375 2.5 10.9375 2.5 9 4 C2.86153846 4.43076923 2.86153846 4.43076923 0 3 C0 2.01 0 1.02 0 0 Z " fill="#213971" transform="translate(403,200)"/>
<path d="M0 0 C0.33 0 0.66 0 1 0 C1.08131463 1.43655854 1.13933559 2.8744483 1.1875 4.3125 C1.22230469 5.11300781 1.25710938 5.91351563 1.29296875 6.73828125 C0.93801608 9.47851584 0.10633718 10.29171079 -2 12 C-2.66 11.34 -3.32 10.68 -4 10 C-2.99806563 6.20696275 -2.18975773 3.28463659 0 0 Z " fill="#405C84" transform="translate(361,188)"/>
<path d="M0 0 C6.625 -0.125 6.625 -0.125 10 1 C10 1.66 10 2.32 10 3 C6.7 3.33 3.4 3.66 0 4 C1.32 3.34 2.64 2.68 4 2 C2.68 1.34 1.36 0.68 0 0 Z " fill="#062D6B" transform="translate(202,181)"/>
<path d="M0 0 C2 1 2 1 4 3 C4.36933645 5.75372909 4.18336678 8.20365661 4 11 C1.82145293 7.7321794 0.50239966 4.61941735 -1 1 C-0.67 0.67 -0.34 0.34 0 0 Z " fill="#13336B" transform="translate(357,183)"/>
<path d="M0 0 C3.3 0 6.6 0 10 0 C10.33 0.99 10.66 1.98 11 3 C9.54077307 2.88590407 8.08259402 2.75834456 6.625 2.625 C5.40683594 2.52058594 5.40683594 2.52058594 4.1640625 2.4140625 C2 2 2 2 0 0 Z " fill="#253D77" transform="translate(346,181)"/>
<path d="M0 0 C-1 3 -1 3 -2.75 4.1875 C-5.29960574 5.10819096 -7.30923081 5.14948718 -10 5 C-2.5 0 -2.5 0 0 0 Z " fill="#0E2565" transform="translate(359,199)"/>
<path d="M0 0 C0.99 0.33 1.98 0.66 3 1 C3 2.65 3 4.3 3 6 C1.68 5.34 0.36 4.68 -1 4 C-0.67 2.68 -0.34 1.36 0 0 Z " fill="#25487A" transform="translate(262,181)"/>
</svg>
