<?xml version="1.0" encoding="UTF-8" standalone="no"?><!DOCTYPE svg PUBLIC "-//W3C//DTD SVG 1.1//EN" "http://www.w3.org/Graphics/SVG/1.1/DTD/svg11.dtd"><svg width="100%" height="100%" viewBox="0 0 3300 2550" version="1.1" xmlns="http://www.w3.org/2000/svg" xmlns:xlink="http://www.w3.org/1999/xlink" xml:space="preserve" xmlns:serif="http://www.serif.com/" style="fill-rule:evenodd;clip-rule:evenodd;stroke-linejoin:round;stroke-miterlimit:2;"><rect id="Página-1" serif:id="Página 1" x="0" y="0" width="3300" height="2550" style="fill:none;"/><g id="Capa-1" serif:id="Capa 1"><path d="M1075.25,854.877l0,618.675c0,10.758 8.921,19.479 19.929,19.479l95.975,0c11.004,0 19.925,-8.721 19.925,-19.479l0,-481.671c0,-10.758 8.921,-19.479 19.929,-19.479l243.667,0c11.008,0 19.929,8.721 19.929,19.479l0,481.671c0,10.758 8.921,19.479 19.925,19.479l95.975,0c11.008,0 19.929,-8.721 19.929,-19.479l0,-618.675c0,-10.758 -8.921,-19.479 -19.929,-19.479l-515.325,0c-11.008,0 -19.929,8.721 -19.929,19.479" style="fill:#010303;fill-rule:nonzero;"/><path d="M1719.105,972.4l175.092,0c11.004,0 19.929,8.721 19.929,19.479l0,481.671c0,10.758 8.921,19.479 19.925,19.479l95.975,0c11.008,0 19.929,-8.721 19.929,-19.479l0,-618.675c0,-10.758 -8.925,-19.479 -19.929,-19.479l-310.921,0c-7.742,0 -14.021,6.138 -14.021,13.708l0,109.592c0,7.567 6.279,13.704 14.021,13.704" style="fill:#010303;fill-rule:nonzero;"/><path d="M1615.86,1577.6l-175.092,0c-11.004,0 -19.929,-8.721 -19.929,-19.479l0,-481.671c0,-10.758 -8.921,-19.479 -19.925,-19.479l-95.975,0c-11.008,0 -19.929,8.721 -19.929,19.479l0,618.675c0,10.758 8.925,19.479 19.929,19.479l310.921,0c7.742,0 14.021,-6.138 14.021,-13.708l0,-109.592c0,-7.567 -6.279,-13.704 -14.021,-13.704" style="fill:#186f49;fill-rule:nonzero;"/><path d="M2263.882,1695.123l0,-618.675c0,-10.758 -8.921,-19.479 -19.929,-19.479l-95.975,0c-11.004,0 -19.925,8.721 -19.925,19.479l0,481.671c0,10.758 -8.921,19.479 -19.929,19.479l-243.667,0c-11.008,0 -19.929,-8.721 -19.929,-19.479l0,-481.671c0,-10.758 -8.921,-19.479 -19.925,-19.479l-95.975,0c-11.008,0 -19.929,8.721 -19.929,19.479l0,618.675c0,10.758 8.921,19.479 19.929,19.479l515.325,0c11.008,0 19.929,-8.721 19.929,-19.479" style="fill:#186f49;fill-rule:nonzero;"/></g></svg>